<svg id="Layer_1" data-name="Layer 1" xmlns="http://www.w3.org/2000/svg" viewBox="0 0 738.24 227.5">
  <defs>
    <style>
      .cls-1, .cls-3, .cls-5, .cls-6 {
        fill: #fff;
      }

      .cls-2 {
        fill: #cc0d0d;
      }

      .cls-3 {
        font-size: 46.19px;
      }

      .cls-3, .cls-5, .cls-6 {
        font-family: PalatinoLinotype-Bold, Palatino Linotype;
        font-weight: 700;
      }

      .cls-4 {
        isolation: isolate;
      }

      .cls-5, .cls-6 {
        font-size: 39.05px;
      }

      .cls-6 {
        letter-spacing: -0.04em;
      }
    </style>
  </defs>
  <path class="cls-1" d="M481.67,730.16l72.81-21.61v-27L454.61,722q6.12,49.29,12.16,98.53H489.7Q485.71,775.36,481.67,730.16Z" transform="translate(-347 -606.56)"/>
  <path class="cls-1" d="M454.65,834.06c-6.78,0-51-1.88-82.34-39.21-28.82-34.27-26.07-74.1-24.31-87.71.87-6.35,8.51-57.91,55.37-85,37.32-21.61,89.63-21.88,122.8,6.74a92.64,92.64,0,0,1,25.64,37.8L464.3,700.48l-20.24-25.65-23.13,63.44,21.61-5.37Z" transform="translate(-347 -606.56)"/>
  <circle class="cls-2" cx="88.44" cy="100.39" r="19.95"/>
  <text class="cls-3" transform="translate(230.49 96.19)">MITEL ENGINEERING</text>
  <g class="cls-4">
    <text class="cls-5" transform="translate(273.66 168.69)">SE</text>
    <text class="cls-6" transform="translate(321.14 168.69)">R</text>
    <text class="cls-5" transform="translate(347.49 168.69)">VICES LIMITED</text>
  </g>
</svg>
