<?xml version="1.0" encoding="utf-8"?>
<!-- Generator: Adobe Illustrator 24.1.1, SVG Export Plug-In . SVG Version: 6.00 Build 0)  -->
<svg version="1.1" id="Layer_1" xmlns="http://www.w3.org/2000/svg" xmlns:xlink="http://www.w3.org/1999/xlink" x="0px" y="0px"
	 viewBox="0 0 188.3 58" style="enable-background:new 0 0 188.3 58;" xml:space="preserve">
<style type="text/css">
	.st0{fill:#1F1E65;}
	.st1{fill:#FF0000;}
	.st2{font-family:'PalatinoLinotype-Bold';}
	.st3{font-size:11.78px;}
	.st4{font-size:9.96px;}
</style>
<path class="st0" d="M34.3,31.5L52.9,26v-6.9L27.4,29.4c1,8.4,2.1,16.8,3.1,25.1h5.8C35.7,46.9,35,39.2,34.3,31.5z"/>
<path class="st0" d="M27.4,58c-1.7,0-13-0.5-21-10c-7.3-8.7-6.7-18.9-6.2-22.4C0.5,24,2.4,10.9,14.4,3.9c9.5-5.5,22.9-5.6,31.3,1.7
	c3,2.6,5.2,5.9,6.5,9.6l-22.3,8.6l-5.2-6.5l-5.9,16.2l5.5-1.4L27.4,58z"/>
<circle class="st1" cx="22.5" cy="25.6" r="3.6"/>
<text transform="matrix(1 0 0 1 58.77 24.51)" class="st0 st2 st3">MITEL ENGINEERING</text>
<text transform="matrix(1 0 0 1 69.78 43)" class="st1 st2 st4">SE</text>
<text transform="matrix(1 0 0 1 81.89 43)" class="st1 st2 st4">R</text>
<text transform="matrix(1 0 0 1 88.61 43)" class="st1 st2 st4">VICES LIMITED</text>
</svg>
