<svg id="Layer_1" data-name="Layer 1" xmlns="http://www.w3.org/2000/svg" viewBox="0 0 98 98">
  <defs>
    <style>
      .cls-1 {
        fill: #032d60;
      }

      .cls-2 {
        fill: #fff;
      }

      .cls-3 {
        fill: none;
      }
    </style>
  </defs>
  <path class="cls-1" d="M705.65,699.91a49,49,0,1,0,49,49A49,49,0,0,0,705.65,699.91Zm0,12.06v73.88a36.94,36.94,0,1,1,0-73.88Z" transform="translate(-656.65 -699.91)"/>
  <path class="cls-2" d="M705.65,708.2a40.71,40.71,0,1,0,40.71,40.71A40.71,40.71,0,0,0,705.65,708.2Zm0,77.65a36.94,36.94,0,1,1,36.94-36.94A36.94,36.94,0,0,1,705.65,785.85Z" transform="translate(-656.65 -699.91)"/>
  <path class="cls-3" d="M705.65,712v73.88a36.94,36.94,0,1,1,0-73.88Z" transform="translate(-656.65 -699.91)"/>
</svg>
